# xmcd
#
# Track frame offsets:
# 150
# 15872
# 35460
# 52300
# 71510
# 91195
# 110260
# 127687
# 144782
# 164270
# 179065
# 193372
# 207735
# 227209
#
# Disc length: 3197 seconds
#
#
# Revision: 0
# Processed by: cddbd v1.5.2PL0 Copyright (c) Steve Scherf et al.
# Submitted via: FreeRIP 2.951 
#
DISCID=c20c7b0e
DTITLE=AS 100 MAIS SERTANEJAS - CD5
DYEAR=1900
DGENRE=SERTANEJO
TTITLE0=LIGACAO URBANA
TTITLE1=FRIO DA MADRUGADA
TTITLE2=FOGAO DE LENHA
TTITLE3=E O AMOR
TTITLE4=FUI EU
TTITLE5=PRA FALAR A VERDADE
TTITLE6=FRUTO ESPECIAL
TTITLE7=JURA
TTITLE8=DEIXARIA TUDO
TTITLE9=ALO
TTITLE10=AINDA ONTEM CHOREI DE SAUDADE
TTITLE11=TE QUERO PRA MIM
TTITLE12=BIJOUTERIA
TTITLE13=TO DOIDAO
EXTD=
EXTT0=
EXTT1=
EXTT2=
EXTT3=
EXTT4=
EXTT5=
EXTT6=
EXTT7=
EXTT8=
EXTT9=
EXTT10=
EXTT11=
EXTT12=
EXTT13=
PLAYORDER=
